:SAMPLES-PER-SECOND 30
:FULLY-SPECIFIED
:DEGREES
81
root  15.0389 39.7308 -6.4549 -61.9937 -86.4102 61.7442
RightUpLeg  8.0379 -0.932154 -6.14249
RightLeg  42.9282 -2.30135 -2.59301
RightFoot  5.95704 -1.15133 7.82706
RightToes  -1.74624e-010 0 -3.6325e-017
Spine  6.39957 4.50585 6.59611
Spine1  7.0618 7.18257 -9.36583
HEad  -12.744 -8.09957 2.18409
LeftShoulder1  8.37146 -12.9418 -44.3268
LeftArm  -8.28824 45.253 -29.5908
LeftForeArm  -178.894 -57.9809 -165.015
LeftHand  -0.244104 0.0205437 5.32207
RightShoulder  6.5818 10.9803 39.3368
RightArm  20.0465 -9.89964 30.8565
RightForeArm  165.259 58.5609 163.315
RightHand  -0.296179 -10.3148 5.34652
LeftUpLeg  -19.4218 6.88145 -8.34258
LeftLeg  13.3016 6.87903 -0.384605
LeftFoot  -9.15915 0.0760721 -2.1029
LeftToes  1.61887e-010 9.40759e-012 5.52375e-011
82
root  12.7824 38.9749 -6.31153 -76.5117 -85.9974 74.7919
RightUpLeg  5.55513 2.60074 -7.44021
RightLeg  52.6609 -3.24637 -4.97198
RightFoot  5.20669 -0.975408 6.94584
RightToes  -1.74624e-010 0 -3.6325e-017
Spine  7.52623 4.00312 4.0591
Spine1  7.32747 6.24195 -7.4888
HEad  -13.9932 -6.56434 1.97753
LeftShoulder1  7.97125 -12.1669 -44.3042
LeftArm  -10.962 43.3025 -31.5504
LeftForeArm  -178.168 -58.0623 -165.042
LeftHand  -0.244104 0.0205437 5.32207
RightShoulder  6.54657 10.8564 39.4788
RightArm  20.4067 -8.49668 30.7204
RightForeArm  165.658 59.8789 162.527
RightHand  -0.554653 -11.5306 8.8245
LeftUpLeg  -19.6545 11.8249 -11.101
LeftLeg  19.7335 4.31331 1.92118
LeftFoot  -6.23176 -0.124855 3.86671
LeftToes  1.61887e-010 9.40759e-012 5.52375e-011
83
root  10.6616 38.272 -6.18866 -88.466 -84.6276 84.9265
RightUpLeg  1.90741 4.88296 -10.0559
RightLeg  61.8748 -3.83815 -8.30028
RightFoot  3.9948 -0.540674 4.1786
RightToes  -1.74624e-010 0 -3.6325e-017
Spine  9.79507 3.27242 1.17424
Spine1  7.29139 5.14861 -6.16133
HEad  -16.4654 -5.31095 1.99339
LeftShoulder1  8.03441 -11.5643 -46.5022
LeftArm  -11.0535 37.6509 -28.2782
LeftForeArm  -179.587 -60.2877 -163.538
LeftHand  -0.244104 0.0205437 5.32207
RightShoulder  6.79753 10.7937 41.3195
RightArm  17.6275 -8.49199 31.281
RightForeArm  166.04 64.17 159.185
RightHand  -0.754612 -11.843 11.8878
LeftUpLeg  -18.9444 11.5437 -12.3311
LeftLeg  28.147 5.92537 3.80448
LeftFoot  -7.37088 -0.229235 8.1093
LeftToes  1.61887e-010 9.40759e-012 5.52375e-011
84
root  8.68538 37.8871 -6.10997 -96.1725 -83.0241 91.2138
RightUpLeg  -3.25948 6.35433 -12.6125
RightLeg  68.404 -3.89902 -11.4632
RightFoot  1.57311 -0.106912 1.03949
RightToes  -1.74624e-010 0 -3.6325e-017
Spine  11.8456 2.54428 -1.13147
Spine1  7.62831 4.25639 -6.08685
HEad  -18.6355 -4.38673 2.4129
LeftShoulder1  8.55328 -11.6258 -49.3391
LeftArm  -10.292 29.5881 -23.1046
LeftForeArm  176.789 -65.6873 -158.925
LeftHand  -0.244104 0.0205437 5.32207
RightShoulder  7.27276 10.8519 44.2139
RightArm  12.2353 -10.065 33.087
RightForeArm  163.181 72.0289 148.862
RightHand  -0.653221 -11.7586 10.3847
LeftUpLeg  -16.5835 11.946 -13.3978
LeftLeg  33.6135 6.63774 5.07421
LeftFoot  -12.5328 0.149219 8.41878
LeftToes  1.61887e-010 9.40759e-012 5.52375e-011
85
root  6.71951 37.9886 -6.02894 -103.097 -82.6357 97.4749
RightUpLeg  -9.02446 6.90879 -13.3008
RightLeg  70.031 -4.13977 -13.264
RightFoot  -0.878727 0.025747 -0.307198
RightToes  -1.74624e-010 0 -3.6325e-017
Spine  12.4856 1.65691 -1.73849
Spine1  8.36472 3.31609 -6.28565
HEad  -19.0135 -3.09342 2.30726
LeftShoulder1  9.08271 -12.1174 -50.7501
LeftArm  -9.92702 22.7001 -20.1911
LeftForeArm  172.837 -71.38 -151.833
LeftHand  -0.244104 0.0205437 5.32207
RightShoulder  7.52245 10.8586 45.7752
RightArm  5.52622 -12.8804 35.754
RightForeArm  155.602 79.2916 126.049
RightHand  -0.863837 -13.7196 10.3688
LeftUpLeg  -12.3137 12.9061 -12.9242
LeftLeg  33.8432 6.81219 5.25668
LeftFoot  -17.0868 0.422859 6.31821
LeftToes  1.61887e-010 9.40759e-012 5.52375e-011
